<svg width="99" height="99" viewBox="0 0 99 99" fill="none" xmlns="http://www.w3.org/2000/svg">
<path d="M83.6482 49.1931L95.025 51.0041L94.7458 52.758L83.4947 59.5214L93.4178 61.101L93.2141 62.3808L81.8373 60.5699L82.1165 58.816L93.3676 52.0526L83.4445 50.473L83.6482 49.1931Z" fill="white"/>
<path d="M81.4094 60.3431L92.1014 64.6316L91.613 65.8493L80.921 61.5608L81.4094 60.3431Z" fill="white"/>
<path d="M80.301 64.1188L89.7634 70.6895L89.015 71.7672L84.8227 68.856L82.7055 71.9049L84.452 78.3382L83.5029 79.705L83.4898 79.6959L81.5187 72.4639L74.0446 73.1566L74.0315 73.1474L74.9897 71.7675L81.6278 71.1566L83.745 68.1076L79.5527 65.1964L80.301 64.1188Z" fill="white"/>
<path d="M73.9532 73.1393L80.9989 82.2535L72.6821 88.6827L71.8895 87.6573L79.1809 82.0208L76.8519 79.0081L70.9909 83.5388L70.1885 82.5008L76.0495 77.97L73.7205 74.9573L66.4291 80.5938L65.6365 79.5685L73.9532 73.1393Z" fill="white"/>
<path d="M62.6731 85.081L63.0306 86.3434L57.0268 88.0439L56.6692 86.7815L62.6731 85.081Z" fill="white"/>
<path d="M50.4205 83.7184L49.0474 95.1563L47.284 94.9446L40.0939 83.9613L38.8963 93.9377L37.6095 93.7832L38.9826 82.3453L40.7459 82.557L47.9361 93.5403L49.1337 83.5639L50.4205 83.7184Z" fill="white"/>
<path d="M39.5255 82.3847L34.607 92.8019L26.3745 88.9149C25.8922 88.6871 25.562 88.3248 25.3838 87.8278C25.2056 87.3308 25.2303 86.8412 25.4581 86.3589L26.5032 84.1452C26.567 84.0102 26.6501 83.8843 26.7524 83.7675C26.8405 83.6557 26.9409 83.5557 27.0534 83.4672C26.9915 83.0487 26.9621 82.6987 26.9653 82.4171C26.9685 82.1355 27.0271 81.8741 27.1409 81.633L28.2886 79.2023C28.5163 78.72 28.8786 78.3898 29.3756 78.2116C29.8726 78.0334 30.3623 78.0582 30.8445 78.2859L39.5255 82.3847ZM37.236 82.7369L30.2912 79.4578C30.1369 79.385 29.9816 79.3765 29.8254 79.4325C29.655 79.4936 29.5334 79.6013 29.4605 79.7557L28.3128 82.1863C28.24 82.3407 28.2364 82.4982 28.302 82.659C28.3535 82.8248 28.4564 82.9442 28.6107 83.017L35.5555 86.2961C35.7098 86.3689 35.8722 86.3748 36.0426 86.3137C36.1988 86.2577 36.3133 86.1526 36.3862 85.9982L37.5338 83.5676C37.6067 83.4132 37.6174 83.2531 37.566 83.0873C37.5003 82.9265 37.3903 82.8097 37.236 82.7369ZM35.0022 87.468L28.5059 84.4007C28.3515 84.3279 28.1963 84.3194 28.0401 84.3754C27.8793 84.4411 27.7625 84.5511 27.6897 84.7054L26.6445 86.9191C26.5716 87.0734 26.5632 87.2287 26.6192 87.3849C26.6706 87.5507 26.7735 87.6701 26.9278 87.7429L33.4241 90.8102C33.5784 90.8831 33.7408 90.889 33.9112 90.8279C34.0674 90.7719 34.1819 90.6667 34.2548 90.5124L35.3 88.2987C35.3729 88.1444 35.3836 87.9843 35.3321 87.8184C35.2665 87.6577 35.1565 87.5409 35.0022 87.468Z" fill="white"/>
<path d="M29.6568 77.7064L23.0434 84.6652C22.676 85.0518 22.2284 85.2518 21.7006 85.2652C21.1728 85.2786 20.7156 85.1016 20.329 84.7342L14.7622 79.4435C14.3756 79.076 14.1756 78.6284 14.1621 78.1006C14.1487 77.5728 14.3257 77.1156 14.6931 76.729L21.3064 69.7703L22.2459 70.6631L19.347 73.7134L25.8185 79.8639L28.7174 76.8136L29.6568 77.7064ZM24.9257 80.8033L18.4542 74.6528L15.6325 77.6218C15.5149 77.7455 15.4621 77.894 15.4741 78.0672C15.471 78.2409 15.5313 78.3865 15.655 78.504L21.2218 83.7948C21.3456 83.9124 21.4979 83.9689 21.6788 83.9642C21.8447 83.96 21.9864 83.8961 22.104 83.7724L24.9257 80.8033Z" fill="white"/>
<path d="M15.6537 67.7763L14.4551 68.3098L11.9175 62.6091L13.1162 62.0756L15.6537 67.7763Z" fill="white"/>
<path d="M15.2542 55.6362L3.73725 55.9029L3.69612 54.1274L13.5458 45.449L3.50049 45.6817L3.47048 44.386L14.9874 44.1192L15.0285 45.8948L5.17884 54.5732L15.2241 54.3405L15.2542 55.6362Z" fill="white"/>
<path d="M15.4645 44.0708L4.18281 41.7398L4.44829 40.455L15.73 42.786L15.4645 44.0708Z" fill="white"/>
<path d="M15.8839 40.1457L5.41242 35.3437L5.95932 34.1511L10.5987 36.2787L12.1461 32.9045L9.29407 26.8793L9.98769 25.3667L10.0022 25.3734L13.2159 32.1454L20.4513 30.1475L20.4658 30.1542L19.7655 31.6813L13.3387 33.4514L11.7913 36.8256L16.4308 38.9531L15.8839 40.1457Z" fill="white"/>
<path d="M20.5365 30.1504L12.0151 22.3983L19.0889 14.6224L20.0475 15.4945L13.8458 22.3117L16.6627 24.8742L21.6477 19.3944L22.6182 20.2773L17.6332 25.7571L20.45 28.3196L26.6517 21.5024L27.6103 22.3746L20.5365 30.1504Z" fill="white"/>
<path d="M29.4425 16.462L28.8691 15.2819L34.4817 12.555L35.0551 13.7351L29.4425 16.462Z" fill="white"/>
<path d="M41.5012 15.6198L40.8348 4.11912L42.6078 4.01639L51.6229 13.5589L51.0417 3.52772L52.3355 3.45276L53.0019 14.9535L51.2289 15.0562L42.2138 5.51369L42.795 15.5449L41.5012 15.6198Z" fill="white"/>
<path d="M52.7114 14.9591L55.7245 3.84014L64.5116 6.22138C65.0264 6.36088 65.4151 6.65962 65.6778 7.11761C65.9405 7.57559 66.0021 8.06197 65.8626 8.57673L65.2223 10.9395C65.1832 11.0836 65.1236 11.2222 65.0433 11.3552C64.9762 11.4806 64.895 11.5968 64.7997 11.7036C64.9341 12.1047 65.0245 12.4442 65.0708 12.7219C65.1171 12.9997 65.1053 13.2673 65.0356 13.5247L64.3325 16.1191C64.193 16.6339 63.8943 17.0226 63.4363 17.2853C62.9783 17.548 62.4919 17.6096 61.9772 17.4701L52.7114 14.9591ZM54.9035 14.2104L62.3162 16.2192C62.4809 16.2638 62.6352 16.2449 62.7791 16.1623C62.9362 16.0722 63.037 15.9449 63.0816 15.7801L63.7847 13.1857C63.8294 13.021 63.8052 12.8652 63.7124 12.7185C63.6326 12.5643 63.5104 12.4649 63.3457 12.4202L55.933 10.4114C55.7683 10.3668 55.6074 10.3895 55.4504 10.4796C55.3065 10.5621 55.2122 10.6858 55.1675 10.8505L54.4645 13.4449C54.4198 13.6096 54.4374 13.7691 54.5171 13.9234C54.61 14.0701 54.7388 14.1658 54.9035 14.2104ZM56.272 9.16055L63.2059 11.0396C63.3706 11.0842 63.525 11.0653 63.6689 10.9827C63.8156 10.8899 63.9113 10.7611 63.9559 10.5963L64.5962 8.23357C64.6409 8.06884 64.6219 7.91451 64.5394 7.77057C64.4596 7.61634 64.3374 7.5169 64.1726 7.47226L57.2387 5.59322C57.074 5.54858 56.9131 5.57129 56.7561 5.66135C56.6122 5.74391 56.5179 5.86755 56.4732 6.03228L55.8329 8.39506C55.7883 8.55978 55.8059 8.71926 55.8856 8.8735C55.9785 9.02023 56.1073 9.11591 56.272 9.16055Z" fill="white"/>
<path d="M63.2694 17.7857L68.5705 9.78207C68.865 9.33743 69.271 9.06255 69.7884 8.95745C70.3058 8.85235 70.7868 8.94705 71.2315 9.24156L77.6344 13.4824C78.079 13.7769 78.3539 14.1829 78.459 14.7003C78.5641 15.2177 78.4694 15.6987 78.1749 16.1434L72.8738 24.147L71.7933 23.4314L74.117 19.9231L66.6736 14.9931L64.3499 18.5014L63.2694 17.7857ZM67.3892 13.9126L74.8326 18.8426L77.0944 15.4277C77.1887 15.2854 77.2148 15.13 77.1729 14.9615C77.1457 14.79 77.061 14.6572 76.9187 14.5629L70.5158 10.3221C70.3735 10.2278 70.2137 10.1987 70.0363 10.2347C69.8737 10.2678 69.7453 10.3554 69.651 10.4977L67.3892 13.9126Z" fill="white"/>
<path d="M78.9338 25.2336L80.0223 24.5011L83.5061 29.6781L82.4176 30.4106L78.9338 25.2336Z" fill="white"/>
<circle cx="49.1584" cy="49.2767" r="8.60387" fill="#FB0223"/>
</svg>
